<svg width="125.699" height="24.287" viewBox="0 0 125.699 24.287" xmlns="http://www.w3.org/2000/svg"><g id="svgGroup" stroke-linecap="round" fill-rule="evenodd" font-size="9pt" stroke="#00000000" stroke-width="0.25mm" fill="#4f46e5" style="stroke:#00000000;stroke-width:0.25mm;fill:#4f46e5"><path d="M 87.525 8.394 L 90.703 8.394 A 0.794 0.794 0 0 1 91.02 8.454 Q 91.316 8.581 91.436 8.98 Q 91.48 9.096 91.552 9.526 A 22.092 22.092 0 0 1 91.553 9.529 A 9.608 9.608 0 0 0 91.679 10.153 A 8.423 8.423 0 0 0 91.729 10.349 Q 91.805 10.637 91.881 10.712 A 0.077 0.077 0 0 0 91.934 10.738 A 0.133 0.133 0 0 0 91.993 10.722 Q 92.039 10.7 92.088 10.642 A 1.621 1.621 0 0 0 92.129 10.592 Q 92.165 10.545 92.186 10.509 A 0.359 0.359 0 0 0 92.197 10.489 A 7.798 7.798 0 0 1 93.018 9.495 A 5.677 5.677 0 0 1 94.109 8.621 Q 95.097 8.02 96.535 7.986 A 7.361 7.361 0 0 1 96.709 7.984 Q 98.074 7.984 99.069 8.438 A 4.171 4.171 0 0 1 99.192 8.496 A 3.186 3.186 0 0 1 100.218 9.322 Q 100.514 9.675 100.759 10.137 A 5.982 5.982 0 0 1 100.869 10.357 A 1.716 1.716 0 0 0 100.892 10.4 Q 100.916 10.445 100.95 10.503 A 0.213 0.213 0 0 0 100.985 10.549 A 0.144 0.144 0 0 0 101.089 10.591 A 0.103 0.103 0 0 0 101.136 10.575 Q 101.248 10.512 101.528 10.203 Q 101.88 9.815 102.466 9.295 A 5.711 5.711 0 0 1 103.361 8.649 A 6.946 6.946 0 0 1 103.85 8.386 A 3.894 3.894 0 0 1 105.317 8.008 A 4.63 4.63 0 0 1 105.615 7.998 Q 107.49 7.998 108.765 9.104 A 3.627 3.627 0 0 1 109.993 11.434 A 5.213 5.213 0 0 1 110.039 12.144 A 369.98 369.98 0 0 0 110.054 15.432 A 183.844 183.844 0 0 0 110.112 18.721 Q 110.142 19.512 110.178 20.303 A 33.89 33.89 0 0 1 110.215 21.87 A 1.166 1.166 0 0 1 110.179 22.173 Q 110.073 22.566 109.654 22.633 A 1.179 1.179 0 0 1 109.468 22.647 L 105.967 22.647 A 0.901 0.901 0 0 1 105.664 22.599 Q 105.39 22.502 105.282 22.203 A 1.2 1.2 0 0 1 105.22 21.914 A 13.36 13.36 0 0 1 105.168 20.731 A 13.757 13.757 0 0 1 105.169 20.581 Q 105.176 19.907 105.161 19.248 L 105.132 16.817 A 200.629 200.629 0 0 1 105.117 14.4 Q 105.117 13.806 104.998 13.367 A 2.365 2.365 0 0 0 104.912 13.111 A 0.705 0.705 0 0 0 104.532 12.728 Q 104.263 12.604 103.828 12.598 A 3.232 3.232 0 0 0 103.784 12.598 A 2.17 2.17 0 0 0 103.097 12.702 A 1.827 1.827 0 0 0 102.4 13.125 A 3.56 3.56 0 0 0 101.728 14.023 A 4.395 4.395 0 0 0 101.528 14.451 Q 101.206 15.249 101.067 16.092 Q 100.948 16.814 100.931 17.391 A 6.373 6.373 0 0 0 100.928 17.578 A 157.745 157.745 0 0 0 100.943 19.724 A 158.822 158.822 0 0 1 100.957 21.885 A 1.097 1.097 0 0 1 100.919 22.186 Q 100.788 22.647 100.195 22.647 L 96.68 22.647 Q 96.087 22.647 95.964 22.166 A 1.144 1.144 0 0 1 95.933 21.885 A 489.438 489.438 0 0 1 95.947 18.091 A 489.438 489.438 0 0 0 95.962 14.297 Q 95.962 13.747 95.826 13.355 A 1.651 1.651 0 0 0 95.691 13.059 A 0.817 0.817 0 0 0 95.3 12.725 Q 95.01 12.598 94.556 12.598 Q 93.765 12.598 93.223 13.125 Q 92.681 13.653 92.351 14.444 Q 92.022 15.235 91.875 16.07 A 11.468 11.468 0 0 0 91.786 16.665 Q 91.75 16.959 91.737 17.219 A 5.849 5.849 0 0 0 91.729 17.52 Q 91.729 18.208 91.721 18.904 A 128.816 128.816 0 0 1 91.699 20.288 A 22.982 22.982 0 0 0 91.685 21.109 A 10.905 10.905 0 0 1 91.655 21.914 A 1.482 1.482 0 0 1 91.624 22.125 Q 91.6 22.231 91.56 22.316 A 0.624 0.624 0 0 1 91.465 22.464 Q 91.307 22.644 90.922 22.647 A 1.685 1.685 0 0 1 90.908 22.647 L 87.349 22.647 Q 86.753 22.647 86.632 22.153 A 1.194 1.194 0 0 1 86.602 21.87 A 31.491 31.491 0 0 1 86.646 20.215 A 47.684 47.684 0 0 0 86.704 18.545 Q 86.792 15.044 86.792 11.572 A 51.083 51.083 0 0 0 86.778 10.357 Q 86.763 9.741 86.778 9.155 Q 86.789 8.546 87.26 8.424 A 1.056 1.056 0 0 1 87.525 8.394 Z M 36.929 22.647 L 33.75 22.647 A 0.812 0.812 0 0 1 33.441 22.591 Q 33.223 22.502 33.103 22.271 A 1.111 1.111 0 0 1 33.018 22.046 Q 32.982 21.902 32.911 21.564 A 49.826 49.826 0 0 1 32.879 21.409 A 36.89 36.89 0 0 1 32.703 20.501 A 12.545 12.545 0 0 1 32.671 20.32 Q 32.631 20.074 32.624 19.954 A 0.791 0.791 0 0 1 32.622 19.907 Q 32.622 19.735 32.735 19.479 A 2.272 2.272 0 0 1 32.739 19.468 A 7.341 7.341 0 0 1 31.463 21.37 A 6.696 6.696 0 0 1 30.718 22.053 A 4.65 4.65 0 0 1 28.405 23.005 A 6.143 6.143 0 0 1 27.598 23.057 Q 26.353 23.057 25.254 22.581 A 4.237 4.237 0 0 1 23.474 21.167 A 3.532 3.532 0 0 1 22.848 19.612 A 4.717 4.717 0 0 1 22.793 18.882 A 179.292 179.292 0 0 1 22.822 15.637 A 179.292 179.292 0 0 0 22.852 12.393 Q 22.852 11.587 22.844 10.774 Q 22.837 9.961 22.837 9.155 A 1.097 1.097 0 0 1 22.875 8.854 Q 23.007 8.394 23.599 8.394 L 27.056 8.394 Q 27.803 8.394 27.803 9.141 Q 27.803 11.089 27.781 13.037 A 148.075 148.075 0 0 0 27.772 14.707 A 148.08 148.08 0 0 0 27.788 16.934 A 2.573 2.573 0 0 0 27.83 17.365 Q 27.872 17.591 27.958 17.766 A 1.04 1.04 0 0 0 28.235 18.12 A 1.417 1.417 0 0 0 28.703 18.367 Q 28.909 18.432 29.158 18.457 A 3.201 3.201 0 0 0 29.473 18.472 A 3.025 3.025 0 0 0 30.164 18.397 A 2.139 2.139 0 0 0 31.033 17.981 A 3.32 3.32 0 0 0 31.876 16.95 A 3.968 3.968 0 0 0 31.992 16.714 A 6.44 6.44 0 0 0 32.483 15.073 A 11.292 11.292 0 0 0 32.596 14.138 A 8.897 8.897 0 0 0 32.622 13.462 L 32.622 9.141 Q 32.622 8.394 33.369 8.394 L 36.812 8.394 A 1.097 1.097 0 0 1 37.113 8.432 Q 37.573 8.563 37.573 9.155 Q 37.573 9.99 37.566 10.818 Q 37.559 11.646 37.559 12.481 A 345.7 345.7 0 0 0 37.573 15.667 A 348.989 348.989 0 0 0 37.617 18.853 A 153.347 153.347 0 0 0 37.654 20.369 Q 37.676 21.123 37.676 21.885 A 1.123 1.123 0 0 1 37.64 22.182 Q 37.547 22.521 37.21 22.613 A 1.074 1.074 0 0 1 36.929 22.647 Z M 17.139 24.287 L 13.565 24.287 A 0.788 0.788 0 0 1 13.242 24.223 Q 13.021 24.126 12.883 23.877 A 4.929 4.929 0 0 1 12.616 23.317 A 4.248 4.248 0 0 1 12.525 23.064 Q 12.438 22.799 12.319 22.708 A 0.213 0.213 0 0 0 12.188 22.661 A 0.062 0.062 0 0 0 12.165 22.666 A 0.077 0.077 0 0 0 12.158 22.669 Q 12.145 22.675 12.12 22.676 A 0.218 0.218 0 0 1 12.114 22.676 Q 11.631 22.764 11.148 22.815 A 9.3 9.3 0 0 1 10.166 22.866 A 10.124 10.124 0 0 1 7.325 22.477 A 9.089 9.089 0 0 1 6.101 22.024 A 9.914 9.914 0 0 1 2.879 19.695 A 10.824 10.824 0 0 1 0.755 16.289 A 11.029 11.029 0 0 1 0 12.217 A 10.914 10.914 0 0 1 0.762 8.167 A 10.931 10.931 0 0 1 2.901 4.746 A 10.229 10.229 0 0 1 6.131 2.388 A 9.35 9.35 0 0 1 9.861 1.528 A 10.853 10.853 0 0 1 10.166 1.524 A 9.615 9.615 0 0 1 13.398 2.06 A 9.038 9.038 0 0 1 14.231 2.403 Q 16.099 3.281 17.476 4.79 A 11.179 11.179 0 0 1 19.622 8.24 Q 20.391 10.181 20.391 12.305 A 10.811 10.811 0 0 1 19.644 16.26 A 10.439 10.439 0 0 1 17.505 19.658 Q 17.227 19.951 16.934 20.208 A 53.974 53.974 0 0 1 16.348 20.713 A 0.3 0.3 0 0 0 16.294 20.762 A 0.191 0.191 0 0 0 16.245 20.889 A 0.207 0.207 0 0 0 16.258 20.953 Q 16.305 21.089 16.516 21.387 A 29.082 29.082 0 0 0 16.772 21.74 Q 16.904 21.919 17.052 22.117 A 50.162 50.162 0 0 0 17.153 22.251 A 14.461 14.461 0 0 1 17.496 22.722 A 11.156 11.156 0 0 1 17.791 23.167 A 3.506 3.506 0 0 1 17.906 23.364 Q 18.007 23.55 18.042 23.685 A 0.53 0.53 0 0 1 18.062 23.819 A 0.437 0.437 0 0 1 18.032 23.984 Q 17.984 24.104 17.855 24.166 A 0.618 0.618 0 0 1 17.71 24.214 Q 17.359 24.287 17.139 24.287 Z M 62.798 1.743 L 75.513 1.743 A 1.074 1.074 0 0 1 75.817 1.783 Q 76.153 1.882 76.242 2.233 A 1.166 1.166 0 0 1 76.275 2.52 A 24.461 24.461 0 0 1 76.253 3.552 Q 76.231 4.072 76.231 4.6 Q 76.216 4.907 76.231 5.222 A 4.501 4.501 0 0 1 76.236 5.432 A 4.358 4.358 0 0 1 76.216 5.845 A 1.14 1.14 0 0 1 76.161 6.145 Q 76.045 6.487 75.693 6.567 A 1.074 1.074 0 0 1 75.454 6.592 L 72.012 6.592 A 0.337 0.337 0 0 0 71.919 6.604 Q 71.815 6.633 71.788 6.74 A 0.345 0.345 0 0 0 71.778 6.826 Q 71.778 8.159 71.77 9.492 Q 71.763 10.825 71.763 12.158 A 538.229 538.229 0 0 0 71.785 17.022 A 538.229 538.229 0 0 1 71.807 21.885 A 1.097 1.097 0 0 1 71.769 22.186 Q 71.637 22.647 71.045 22.647 L 67.002 22.647 Q 66.409 22.647 66.287 22.166 A 1.144 1.144 0 0 1 66.255 21.885 A 538.229 538.229 0 0 1 66.277 17.022 A 538.229 538.229 0 0 0 66.299 12.158 Q 66.299 10.825 66.292 9.492 Q 66.284 8.159 66.284 6.826 A 0.317 0.317 0 0 0 66.272 6.732 Q 66.239 6.629 66.126 6.602 A 0.391 0.391 0 0 0 66.035 6.592 L 62.857 6.592 A 0.998 0.998 0 0 1 62.553 6.55 Q 62.231 6.447 62.134 6.095 A 1.207 1.207 0 0 1 62.095 5.845 Q 62.08 5.537 62.088 5.222 Q 62.095 4.907 62.08 4.6 Q 62.08 4.072 62.058 3.552 A 24.461 24.461 0 0 1 62.036 2.52 Q 62.036 1.907 62.511 1.778 A 1.096 1.096 0 0 1 62.798 1.743 Z M 52.046 13.155 L 48.823 13.155 Q 48.076 13.155 48.076 12.407 Q 48.076 11.587 48.069 10.774 Q 48.062 9.961 48.062 9.155 A 1.097 1.097 0 0 1 48.099 8.854 Q 48.231 8.394 48.823 8.394 L 59.18 8.394 A 1.659 1.659 0 0 1 59.442 8.416 Q 59.562 8.435 59.692 8.471 A 2.734 2.734 0 0 1 59.729 8.482 Q 59.969 8.552 60.017 8.782 A 0.61 0.61 0 0 1 60.029 8.906 A 0.772 0.772 0 0 1 59.985 9.163 A 0.892 0.892 0 0 1 59.971 9.199 A 3.865 3.865 0 0 1 59.839 9.492 Q 59.755 9.66 59.505 10.135 A 186.765 186.765 0 0 1 59.385 10.364 A 467.247 467.247 0 0 0 59.103 10.9 Q 58.852 11.377 58.55 11.953 A 1268.393 1268.393 0 0 1 57.804 13.375 A 1408.719 1408.719 0 0 1 57.547 13.865 A 329.313 329.313 0 0 0 57.045 14.823 A 267.736 267.736 0 0 0 56.58 15.718 A 196.708 196.708 0 0 0 56.367 16.131 Q 56.063 16.721 55.855 17.139 A 32.85 32.85 0 0 0 55.789 17.27 Q 55.582 17.69 55.576 17.737 A 0.02 0.02 0 0 0 55.576 17.739 A 0.165 0.165 0 0 0 55.583 17.787 Q 55.601 17.848 55.672 17.864 Q 55.751 17.882 55.815 17.885 A 0.526 0.526 0 0 0 55.84 17.886 L 59.663 17.886 A 0.998 0.998 0 0 1 59.967 17.928 Q 60.289 18.031 60.386 18.383 A 1.207 1.207 0 0 1 60.425 18.633 A 29.85 29.85 0 0 1 60.469 20.259 L 60.469 21.885 A 1.123 1.123 0 0 1 60.433 22.182 Q 60.34 22.521 60.003 22.613 A 1.074 1.074 0 0 1 59.722 22.647 L 48.618 22.647 A 1.674 1.674 0 0 1 48.372 22.627 Q 48.253 22.61 48.122 22.575 A 2.88 2.88 0 0 1 48.062 22.559 A 0.496 0.496 0 0 1 47.911 22.49 Q 47.786 22.401 47.761 22.237 A 0.579 0.579 0 0 1 47.754 22.149 A 0.792 0.792 0 0 1 47.82 21.834 A 5.633 5.633 0 0 1 47.959 21.533 Q 48.055 21.354 48.312 20.881 A 434.794 434.794 0 0 1 48.435 20.655 A 204.139 204.139 0 0 0 48.723 20.124 Q 48.851 19.888 48.991 19.627 A 385.015 385.015 0 0 0 49.285 19.08 A 2057.636 2057.636 0 0 1 50.042 17.669 A 2287.39 2287.39 0 0 1 50.303 17.183 A 402.579 402.579 0 0 0 50.812 16.233 A 327.049 327.049 0 0 0 51.284 15.344 A 141.004 141.004 0 0 0 51.501 14.934 Q 51.81 14.347 52.024 13.924 A 33.545 33.545 0 0 0 52.091 13.791 Q 52.304 13.365 52.31 13.318 A 0.019 0.019 0 0 0 52.31 13.316 A 0.216 0.216 0 0 0 52.304 13.265 Q 52.287 13.193 52.215 13.176 Q 52.135 13.158 52.071 13.155 A 0.526 0.526 0 0 0 52.046 13.155 Z M 125.2 14.751 L 117.818 17.3 Q 117.735 17.33 117.695 17.375 A 0.147 0.147 0 0 0 117.656 17.476 Q 117.656 17.512 117.676 17.577 A 1.057 1.057 0 0 0 117.686 17.608 A 3.003 3.003 0 0 0 118.296 18.389 A 2.679 2.679 0 0 0 118.916 18.809 Q 119.693 19.19 120.601 19.19 A 4.688 4.688 0 0 0 122.062 18.964 A 4.445 4.445 0 0 0 122.153 18.933 Q 122.886 18.677 123.604 18.325 A 1.557 1.557 0 0 1 123.778 18.25 Q 123.87 18.218 123.954 18.204 A 0.725 0.725 0 0 1 124.072 18.194 A 0.581 0.581 0 0 1 124.253 18.22 A 0.476 0.476 0 0 1 124.453 18.347 Q 124.6 18.501 124.673 18.706 L 125.523 20.742 Q 125.596 20.918 125.596 21.079 A 0.62 0.62 0 0 1 125.583 21.211 Q 125.561 21.313 125.501 21.387 Q 125.419 21.488 125.288 21.588 A 1.935 1.935 0 0 1 125.244 21.621 A 6.409 6.409 0 0 1 123.986 22.292 Q 123.364 22.544 122.63 22.713 Q 121.128 23.058 119.891 23.071 A 9.165 9.165 0 0 1 119.795 23.072 A 11.019 11.019 0 0 1 117.609 22.868 Q 116.307 22.604 115.305 21.999 A 5.904 5.904 0 0 1 114.243 21.182 A 6.048 6.048 0 0 1 112.668 18.509 Q 112.295 17.257 112.295 15.674 Q 112.295 13.447 113.101 11.712 Q 113.906 9.976 115.496 8.98 A 6.328 6.328 0 0 1 117.607 8.154 A 8.93 8.93 0 0 1 119.4 7.984 A 8.336 8.336 0 0 1 121.084 8.143 Q 122.079 8.348 122.833 8.819 A 4.309 4.309 0 0 1 123.779 9.617 Q 125.23 11.25 125.684 13.96 Q 125.697 14.013 125.698 14.102 A 1.349 1.349 0 0 1 125.698 14.121 A 0.627 0.627 0 0 1 125.624 14.431 Q 125.549 14.565 125.399 14.658 A 1.03 1.03 0 0 1 125.2 14.751 Z M 12.818 15.989 A 19.474 19.474 0 0 0 12.363 15.337 A 217.719 217.719 0 0 0 10.65 15.403 Q 9.785 15.44 8.921 15.484 Q 9.214 16.114 9.514 16.743 A 77.058 77.058 0 0 1 10.108 18.018 A 5.012 5.012 0 0 1 9.522 17.938 A 3.842 3.842 0 0 1 7.632 17 A 5.572 5.572 0 0 1 6.167 14.795 Q 5.684 13.491 5.684 12.144 A 7.241 7.241 0 0 1 5.69 11.852 A 7.678 7.678 0 0 1 6.174 9.485 Q 6.665 8.159 7.669 7.266 A 3.398 3.398 0 0 1 8.982 6.537 A 4.267 4.267 0 0 1 10.195 6.372 A 4.699 4.699 0 0 1 10.788 6.409 A 3.514 3.514 0 0 1 12.708 7.251 A 5.274 5.274 0 0 1 13.179 7.72 A 5.589 5.589 0 0 1 14.216 9.456 A 8.369 8.369 0 0 1 14.335 9.787 A 7.268 7.268 0 0 1 14.722 12.1 Q 14.722 13.33 14.407 14.517 A 5.339 5.339 0 0 1 13.272 16.655 A 40.743 40.743 0 0 1 12.818 15.989 Z M 40.65 12.334 L 40.65 9.141 Q 40.65 8.394 41.397 8.394 L 44.605 8.394 Q 45.352 8.394 45.352 9.141 A 1384.35 1384.35 0 0 0 45.366 15.506 A 1387.536 1387.536 0 0 1 45.381 21.885 A 1.097 1.097 0 0 1 45.343 22.186 Q 45.211 22.647 44.619 22.647 L 41.367 22.647 A 1.097 1.097 0 0 1 41.066 22.609 Q 40.606 22.477 40.606 21.885 Q 40.606 19.497 40.628 17.11 Q 40.65 14.722 40.65 12.334 Z M 78.765 12.334 L 78.765 9.141 Q 78.765 8.394 79.512 8.394 L 82.72 8.394 Q 83.467 8.394 83.467 9.141 A 1384.35 1384.35 0 0 0 83.482 15.506 A 1387.536 1387.536 0 0 1 83.496 21.885 A 1.097 1.097 0 0 1 83.459 22.186 Q 83.327 22.647 82.735 22.647 L 79.483 22.647 A 1.097 1.097 0 0 1 79.181 22.609 Q 78.721 22.477 78.721 21.885 Q 78.721 19.497 78.743 17.11 Q 78.765 14.722 78.765 12.334 Z M 42.124 5.415 A 2.767 2.767 0 0 0 43.14 5.596 A 2.675 2.675 0 0 0 44.151 5.405 A 2.845 2.845 0 0 0 45.081 4.783 A 3.351 3.351 0 0 0 45.119 4.745 A 2.601 2.601 0 0 0 45.908 2.857 A 2.849 2.849 0 0 0 45.11 0.864 A 3.222 3.222 0 0 0 45.034 0.785 A 2.529 2.529 0 0 0 43.169 0 Q 42.085 0 41.243 0.821 A 3.415 3.415 0 0 0 41.153 0.911 A 2.571 2.571 0 0 0 40.401 2.739 A 2.892 2.892 0 0 0 41.17 4.746 A 2.512 2.512 0 0 0 42.124 5.415 Z M 80.24 5.415 A 2.767 2.767 0 0 0 81.255 5.596 A 2.675 2.675 0 0 0 82.267 5.405 A 2.845 2.845 0 0 0 83.196 4.783 A 3.351 3.351 0 0 0 83.234 4.745 A 2.601 2.601 0 0 0 84.024 2.857 A 2.849 2.849 0 0 0 83.225 0.864 A 3.222 3.222 0 0 0 83.15 0.785 A 2.529 2.529 0 0 0 81.284 0 Q 80.2 0 79.358 0.821 A 3.415 3.415 0 0 0 79.268 0.911 A 2.571 2.571 0 0 0 78.516 2.739 A 2.892 2.892 0 0 0 79.285 4.746 A 2.512 2.512 0 0 0 80.24 5.415 Z M 117.261 14.707 Q 118.213 14.385 119.143 14.063 A 816.876 816.876 0 0 1 121.011 13.418 A 2.379 2.379 0 0 0 120.804 12.942 A 1.793 1.793 0 0 0 120.418 12.473 A 1.4 1.4 0 0 0 119.785 12.17 A 2.009 2.009 0 0 0 119.37 12.129 A 2.452 2.452 0 0 0 118.767 12.198 A 1.497 1.497 0 0 0 117.788 12.935 A 4.211 4.211 0 0 0 117.261 14.707 Z M 32.871 19.175 L 32.813 19.292 Q 32.851 19.229 32.867 19.187 A 0.271 0.271 0 0 0 32.871 19.175 Z" vector-effect="non-scaling-stroke"/></g></svg>
